<svg width="454" height="754" viewBox="0 0 454 754" fill="none" xmlns="http://www.w3.org/2000/svg">
<path d="M2 38C2 18.1177 18.1177 2 38 2H416C435.882 2 452 18.1178 452 38V716C452 735.882 435.882 752 416 752H38C18.1177 752 2 735.882 2 716V38Z" fill="#D9D9D9"/>
<path d="M33 49C33 40.1635 40.1634 33 49 33H405C413.837 33 421 40.1634 421 49V308C421 316.837 413.837 324 405 324H49C40.1634 324 33 316.837 33 308V49Z" fill="white"/>
<path d="M384 534C384 620.709 313.709 691 227 691C140.291 691 70 620.709 70 534C70 447.291 140.291 377 227 377C313.709 377 384 447.291 384 534Z" fill="white"/>
<path d="M289 534C289 568.242 261.242 596 227 596C192.758 596 165 568.242 165 534C165 499.758 192.758 472 227 472C261.242 472 289 499.758 289 534Z" fill="#D9D9D9"/>
<path d="M194.619 430L197.435 413.412H201.703L205.025 422.256L208.325 413.412H212.593L215.409 430H211.119L209.689 420.452L205.773 430H204.057L200.339 420.452L198.909 430H194.619Z" fill="#D9D9D9"/>
<path d="M225.415 422.718C225.283 422.161 225.011 421.713 224.601 421.376C224.19 421.039 223.691 420.87 223.105 420.87C222.489 420.87 221.983 421.031 221.587 421.354C221.205 421.677 220.963 422.131 220.861 422.718H225.415ZM220.751 425.028C220.751 426.744 221.557 427.602 223.171 427.602C224.036 427.602 224.689 427.25 225.129 426.546H228.979C228.201 429.127 226.258 430.418 223.149 430.418C222.195 430.418 221.323 430.279 220.531 430C219.739 429.707 219.057 429.296 218.485 428.768C217.927 428.24 217.495 427.609 217.187 426.876C216.879 426.143 216.725 425.321 216.725 424.412C216.725 423.473 216.871 422.63 217.165 421.882C217.458 421.119 217.876 420.474 218.419 419.946C218.961 419.418 219.614 419.015 220.377 418.736C221.154 418.443 222.027 418.296 222.995 418.296C223.948 418.296 224.806 418.443 225.569 418.736C226.331 419.015 226.977 419.425 227.505 419.968C228.033 420.511 228.436 421.178 228.715 421.97C228.993 422.747 229.133 423.627 229.133 424.61V425.028H220.751Z" fill="#D9D9D9"/>
<path d="M231.409 418.714H235.391V420.144C235.934 419.484 236.484 419.044 237.041 418.824C237.598 418.589 238.251 418.472 238.999 418.472C239.791 418.472 240.466 418.604 241.023 418.868C241.595 419.117 242.079 419.477 242.475 419.946C242.798 420.327 243.018 420.753 243.135 421.222C243.252 421.691 243.311 422.227 243.311 422.828V430H239.329V424.302C239.329 423.745 239.285 423.297 239.197 422.96C239.124 422.608 238.984 422.329 238.779 422.124C238.603 421.948 238.405 421.823 238.185 421.75C237.965 421.677 237.73 421.64 237.481 421.64C236.806 421.64 236.286 421.845 235.919 422.256C235.567 422.652 235.391 423.224 235.391 423.972V430H231.409V418.714Z" fill="#D9D9D9"/>
<path d="M250 418.714V425.072C250 426.465 250.675 427.162 252.024 427.162C253.374 427.162 254.048 426.465 254.048 425.072V418.714H258.03V425.842C258.03 427.367 257.524 428.511 256.512 429.274C255.515 430.037 254.019 430.418 252.024 430.418C250.03 430.418 248.526 430.037 247.514 429.274C246.517 428.511 246.018 427.367 246.018 425.842V418.714H250Z" fill="#D9D9D9"/>
<path d="M339.25 542.75L350.5 534L339.25 525.25V542.75Z" fill="#D9D9D9"/>
<path d="M325.5 542.75L336.75 534L325.5 525.25V542.75Z" fill="#D9D9D9"/>
<path d="M114.75 542.75L103.5 534L114.75 525.25V542.75Z" fill="#D9D9D9"/>
<path d="M128.5 542.75L117.25 534L128.5 525.25V542.75Z" fill="#D9D9D9"/>
<path d="M236.5 631H231.5V651H236.5V631Z" fill="#D9D9D9"/>
<path d="M246.5 631H241.5V651H246.5V631Z" fill="#D9D9D9"/>
<path d="M206.25 629.75L223.75 641L206.25 652.25V629.75Z" fill="#D9D9D9"/>
<path d="M194.619 430L193.14 429.749L192.843 431.5H194.619V430ZM197.435 413.412V411.912H196.168L195.956 413.161L197.435 413.412ZM201.703 413.412L203.107 412.885L202.742 411.912H201.703V413.412ZM205.025 422.256L203.621 422.783L205.03 426.534L206.43 422.78L205.025 422.256ZM208.325 413.412V411.912H207.284L206.92 412.888L208.325 413.412ZM212.593 413.412L214.072 413.161L213.86 411.912H212.593V413.412ZM215.409 430V431.5H217.185L216.888 429.749L215.409 430ZM211.119 430L209.635 430.222L209.827 431.5H211.119V430ZM209.689 420.452L211.172 420.23L210.366 414.848L208.301 419.883L209.689 420.452ZM205.773 430V431.5H206.779L207.161 430.569L205.773 430ZM204.057 430L202.659 430.544L203.031 431.5H204.057V430ZM200.339 420.452L201.737 419.908L199.691 414.653L198.855 420.23L200.339 420.452ZM198.909 430V431.5H200.201L200.392 430.222L198.909 430ZM225.415 422.718V424.218H227.312L226.874 422.372L225.415 422.718ZM224.601 421.376L223.649 422.535L223.649 422.535L224.601 421.376ZM221.587 421.354L220.639 420.191L220.628 420.2L220.618 420.209L221.587 421.354ZM220.861 422.718L219.383 422.459L219.075 424.218H220.861V422.718ZM220.751 425.028V423.528H219.251V425.028H220.751ZM225.129 426.546V425.046H224.297L223.857 425.751L225.129 426.546ZM228.979 426.546L230.415 426.979L230.997 425.046H228.979V426.546ZM220.531 430L220.01 431.407L220.021 431.411L220.033 431.415L220.531 430ZM218.485 428.768L217.453 429.857L217.46 429.864L217.467 429.87L218.485 428.768ZM217.187 426.876L215.804 427.457L215.804 427.457L217.187 426.876ZM217.165 421.882L218.561 422.43L218.565 422.42L217.165 421.882ZM218.419 419.946L219.465 421.021L219.465 421.021L218.419 419.946ZM220.377 418.736L220.892 420.145L220.899 420.142L220.906 420.139L220.377 418.736ZM225.569 418.736L225.03 420.136L225.042 420.141L225.054 420.145L225.569 418.736ZM227.505 419.968L226.43 421.014L226.43 421.014L227.505 419.968ZM228.715 421.97L227.3 422.468L227.303 422.476L228.715 421.97ZM229.133 425.028V426.528H230.633V425.028H229.133ZM231.409 418.714V417.214H229.909V418.714H231.409ZM235.391 418.714H236.891V417.214H235.391V418.714ZM235.391 420.144H233.891V424.33L236.55 421.097L235.391 420.144ZM237.041 418.824L237.592 420.219L237.607 420.213L237.623 420.206L237.041 418.824ZM241.023 418.868L240.381 420.224L240.402 420.234L240.424 420.243L241.023 418.868ZM242.475 419.946L241.328 420.913L241.33 420.915L242.475 419.946ZM243.311 430V431.5H244.811V430H243.311ZM239.329 430H237.829V431.5H239.329V430ZM239.197 422.96L237.728 423.266L237.736 423.302L237.745 423.339L239.197 422.96ZM238.185 421.75L238.659 420.327L238.659 420.327L238.185 421.75ZM235.919 422.256L234.8 421.257L234.798 421.259L235.919 422.256ZM235.391 430V431.5H236.891V430H235.391ZM231.409 430H229.909V431.5H231.409V430ZM250 418.714H251.5V417.214H250V418.714ZM254.048 418.714V417.214H252.548V418.714H254.048ZM258.03 418.714H259.53V417.214H258.03V418.714ZM256.512 429.274L255.61 428.076L255.601 428.082L256.512 429.274ZM247.514 429.274L246.603 430.466L246.612 430.472L247.514 429.274ZM246.018 418.714V417.214H244.518V418.714H246.018ZM339.25 542.75H337.75C337.75 543.323 338.076 543.846 338.591 544.097C339.106 544.349 339.719 544.286 340.171 543.934L339.25 542.75ZM350.5 534L351.421 535.184C351.786 534.9 352 534.463 352 534C352 533.537 351.786 533.1 351.421 532.816L350.5 534ZM339.25 525.25L340.171 524.066C339.719 523.714 339.106 523.651 338.591 523.903C338.076 524.154 337.75 524.677 337.75 525.25H339.25ZM325.5 542.75H324C324 543.323 324.326 543.846 324.841 544.097C325.356 544.349 325.969 544.286 326.421 543.934L325.5 542.75ZM336.75 534L337.671 535.184C338.036 534.9 338.25 534.463 338.25 534C338.25 533.537 338.036 533.1 337.671 532.816L336.75 534ZM325.5 525.25L326.421 524.066C325.969 523.714 325.356 523.651 324.841 523.903C324.326 524.154 324 524.677 324 525.25H325.5ZM114.75 542.75L113.829 543.934C114.281 544.286 114.894 544.349 115.409 544.097C115.924 543.846 116.25 543.323 116.25 542.75H114.75ZM103.5 534L102.579 532.816C102.214 533.1 102 533.537 102 534C102 534.463 102.214 534.9 102.579 535.184L103.5 534ZM114.75 525.25H116.25C116.25 524.677 115.924 524.154 115.409 523.903C114.894 523.651 114.281 523.714 113.829 524.066L114.75 525.25ZM128.5 542.75L127.579 543.934C128.031 544.286 128.644 544.349 129.159 544.097C129.674 543.846 130 543.323 130 542.75H128.5ZM117.25 534L116.329 532.816C115.964 533.1 115.75 533.537 115.75 534C115.75 534.463 115.964 534.9 116.329 535.184L117.25 534ZM128.5 525.25H130C130 524.677 129.674 524.154 129.159 523.903C128.644 523.651 128.031 523.714 127.579 524.066L128.5 525.25ZM236.5 631H238C238 630.172 237.328 629.5 236.5 629.5V631ZM231.5 631V629.5C230.672 629.5 230 630.172 230 631H231.5ZM231.5 651H230C230 651.828 230.672 652.5 231.5 652.5V651ZM236.5 651V652.5C237.328 652.5 238 651.828 238 651H236.5ZM246.5 631H248C248 630.172 247.328 629.5 246.5 629.5V631ZM241.5 631V629.5C240.672 629.5 240 630.172 240 631H241.5ZM241.5 651H240C240 651.828 240.672 652.5 241.5 652.5V651ZM246.5 651V652.5C247.328 652.5 248 651.828 248 651H246.5ZM206.25 629.75L207.061 628.488C206.6 628.192 206.013 628.17 205.531 628.433C205.05 628.696 204.75 629.201 204.75 629.75H206.25ZM223.75 641L224.561 642.262C224.99 641.986 225.25 641.51 225.25 641C225.25 640.49 224.99 640.014 224.561 639.738L223.75 641ZM206.25 652.25H204.75C204.75 652.799 205.05 653.304 205.531 653.567C206.013 653.83 206.6 653.808 207.061 653.512L206.25 652.25ZM2 38H3.5C3.5 18.9462 18.9462 3.5 38 3.5V2V0.5C17.2893 0.5 0.5 17.2893 0.5 38H2ZM38 2V3.5H416V2V0.5H38V2ZM416 2V3.5C435.054 3.5 450.5 18.9462 450.5 38H452H453.5C453.5 17.2893 436.711 0.5 416 0.5V2ZM452 38H450.5V716H452H453.5V38H452ZM452 716H450.5C450.5 735.054 435.054 750.5 416 750.5V752V753.5C436.711 753.5 453.5 736.711 453.5 716H452ZM416 752V750.5H38V752V753.5H416V752ZM38 752V750.5C18.9462 750.5 3.5 735.054 3.5 716H2H0.5C0.5 736.711 17.2893 753.5 38 753.5V752ZM2 716H3.5V38H2H0.5V716H2ZM49 33V34.5H405V33V31.5H49V33ZM421 49H419.5V308H421H422.5V49H421ZM405 324V322.5H49V324V325.5H405V324ZM33 308H34.5V49H33H31.5V308H33ZM49 324V322.5C40.9919 322.5 34.5 316.008 34.5 308H33H31.5C31.5 317.665 39.335 325.5 49 325.5V324ZM421 308H419.5C419.5 316.008 413.008 322.5 405 322.5V324V325.5C414.665 325.5 422.5 317.665 422.5 308H421ZM405 33V34.5C413.008 34.5 419.5 40.9919 419.5 49H421H422.5C422.5 39.335 414.665 31.5 405 31.5V33ZM49 33V31.5C39.335 31.5 31.5 39.335 31.5 49H33H34.5C34.5 40.9919 40.9919 34.5 49 34.5V33ZM384 534H382.5C382.5 619.88 312.88 689.5 227 689.5V691V692.5C314.537 692.5 385.5 621.537 385.5 534H384ZM227 691V689.5C141.12 689.5 71.5 619.88 71.5 534H70H68.5C68.5 621.537 139.463 692.5 227 692.5V691ZM70 534H71.5C71.5 448.12 141.12 378.5 227 378.5V377V375.5C139.463 375.5 68.5 446.463 68.5 534H70ZM227 377V378.5C312.88 378.5 382.5 448.12 382.5 534H384H385.5C385.5 446.463 314.537 375.5 227 375.5V377ZM289 534H287.5C287.5 567.413 260.413 594.5 227 594.5V596V597.5C262.07 597.5 290.5 569.07 290.5 534H289ZM227 596V594.5C193.587 594.5 166.5 567.413 166.5 534H165H163.5C163.5 569.07 191.93 597.5 227 597.5V596ZM165 534H166.5C166.5 500.587 193.587 473.5 227 473.5V472V470.5C191.93 470.5 163.5 498.93 163.5 534H165ZM227 472V473.5C260.413 473.5 287.5 500.587 287.5 534H289H290.5C290.5 498.93 262.07 470.5 227 470.5V472ZM194.619 430L196.098 430.251L198.914 413.663L197.435 413.412L195.956 413.161L193.14 429.749L194.619 430ZM197.435 413.412V414.912H201.703V413.412V411.912H197.435V413.412ZM201.703 413.412L200.299 413.939L203.621 422.783L205.025 422.256L206.429 421.729L203.107 412.885L201.703 413.412ZM205.025 422.256L206.43 422.78L209.73 413.936L208.325 413.412L206.92 412.888L203.62 421.732L205.025 422.256ZM208.325 413.412V414.912H212.593V413.412V411.912H208.325V413.412ZM212.593 413.412L211.114 413.663L213.93 430.251L215.409 430L216.888 429.749L214.072 413.161L212.593 413.412ZM215.409 430V428.5H211.119V430V431.5H215.409V430ZM211.119 430L212.602 429.778L211.172 420.23L209.689 420.452L208.205 420.674L209.635 430.222L211.119 430ZM209.689 420.452L208.301 419.883L204.385 429.431L205.773 430L207.161 430.569L211.077 421.021L209.689 420.452ZM205.773 430V428.5H204.057V430V431.5H205.773V430ZM204.057 430L205.455 429.456L201.737 419.908L200.339 420.452L198.941 420.996L202.659 430.544L204.057 430ZM200.339 420.452L198.855 420.23L197.425 429.778L198.909 430L200.392 430.222L201.822 420.674L200.339 420.452ZM198.909 430V428.5H194.619V430V431.5H198.909V430ZM225.415 422.718L226.874 422.372C226.673 421.522 226.237 420.779 225.553 420.217L224.601 421.376L223.649 422.535C223.786 422.648 223.893 422.799 223.955 423.064L225.415 422.718ZM224.601 421.376L225.553 420.217C224.846 419.636 224 419.37 223.105 419.37V420.87V422.37C223.383 422.37 223.535 422.441 223.649 422.535L224.601 421.376ZM223.105 420.87V419.37C222.217 419.37 221.355 419.608 220.639 420.191L221.587 421.354L222.534 422.517C222.611 422.455 222.76 422.37 223.105 422.37V420.87ZM221.587 421.354L220.618 420.209C219.919 420.8 219.534 421.596 219.383 422.459L220.861 422.718L222.338 422.977C222.393 422.666 222.492 422.553 222.556 422.499L221.587 421.354ZM220.861 422.718V424.218H225.415V422.718V421.218H220.861V422.718ZM220.751 425.028H219.251C219.251 426.095 219.5 427.174 220.263 427.986C221.042 428.815 222.108 429.102 223.171 429.102V427.602V426.102C222.62 426.102 222.476 425.96 222.449 425.931C222.405 425.885 222.251 425.677 222.251 425.028H220.751ZM223.171 427.602V429.102C224.527 429.102 225.673 428.506 226.401 427.341L225.129 426.546L223.857 425.751C223.705 425.994 223.545 426.102 223.171 426.102V427.602ZM225.129 426.546V428.046H228.979V426.546V425.046H225.129V426.546ZM228.979 426.546L227.542 426.113C227.238 427.124 226.745 427.778 226.108 428.2C225.452 428.636 224.504 428.918 223.149 428.918V430.418V431.918C224.902 431.918 226.481 431.554 227.768 430.7C229.075 429.831 229.942 428.549 230.415 426.979L228.979 426.546ZM223.149 430.418V428.918C222.342 428.918 221.641 428.8 221.029 428.585L220.531 430L220.033 431.415C221.005 431.757 222.049 431.918 223.149 431.918V430.418ZM220.531 430L221.052 428.593C220.428 428.362 219.918 428.05 219.502 427.666L218.485 428.768L217.467 429.87C218.195 430.542 219.05 431.051 220.01 431.407L220.531 430ZM218.485 428.768L219.516 427.679C219.116 427.299 218.8 426.844 218.57 426.295L217.187 426.876L215.804 427.457C216.189 428.375 216.739 429.181 217.453 429.857L218.485 428.768ZM217.187 426.876L218.57 426.295C218.349 425.77 218.225 425.15 218.225 424.412H216.725H215.225C215.225 425.492 215.408 426.515 215.804 427.457L217.187 426.876ZM216.725 424.412H218.225C218.225 423.63 218.347 422.976 218.561 422.43L217.165 421.882L215.768 421.334C215.396 422.284 215.225 423.317 215.225 424.412H216.725ZM217.165 421.882L218.565 422.42C218.787 421.844 219.09 421.386 219.465 421.021L218.419 419.946L217.373 418.871C216.663 419.562 216.13 420.395 215.765 421.344L217.165 421.882ZM218.419 419.946L219.465 421.021C219.845 420.651 220.313 420.356 220.892 420.145L220.377 418.736L219.862 417.327C218.915 417.673 218.078 418.185 217.373 418.871L218.419 419.946ZM220.377 418.736L220.906 420.139C221.489 419.92 222.178 419.796 222.995 419.796V418.296V416.796C221.875 416.796 220.819 416.966 219.847 417.333L220.377 418.736ZM222.995 418.296V419.796C223.794 419.796 224.466 419.919 225.03 420.136L225.569 418.736L226.107 417.336C225.147 416.967 224.102 416.796 222.995 416.796V418.296ZM225.569 418.736L225.054 420.145C225.621 420.352 226.07 420.644 226.43 421.014L227.505 419.968L228.58 418.922C227.884 418.206 227.042 417.677 226.084 417.327L225.569 418.736ZM227.505 419.968L226.43 421.014C226.79 421.385 227.085 421.859 227.3 422.468L228.715 421.97L230.13 421.472C229.787 420.497 229.275 419.637 228.58 418.922L227.505 419.968ZM228.715 421.97L227.303 422.476C227.513 423.064 227.633 423.768 227.633 424.61H229.133H230.633C230.633 423.487 230.474 422.431 230.127 421.464L228.715 421.97ZM229.133 424.61H227.633V425.028H229.133H230.633V424.61H229.133ZM229.133 425.028V423.528H220.751V425.028V426.528H229.133V425.028ZM231.409 418.714V420.214H235.391V418.714V417.214H231.409V418.714ZM235.391 418.714H233.891V420.144H235.391H236.891V418.714H235.391ZM235.391 420.144L236.55 421.097C236.995 420.555 237.351 420.314 237.592 420.219L237.041 418.824L236.49 417.429C235.616 417.774 234.872 418.413 234.232 419.191L235.391 420.144ZM237.041 418.824L237.623 420.206C237.958 420.065 238.405 419.972 238.999 419.972V418.472V416.972C238.097 416.972 237.238 417.113 236.459 417.442L237.041 418.824ZM238.999 418.472V419.972C239.63 419.972 240.073 420.078 240.381 420.224L241.023 418.868L241.665 417.512C240.858 417.13 239.952 416.972 238.999 416.972V418.472ZM241.023 418.868L240.424 420.243C240.788 420.402 241.084 420.623 241.328 420.913L242.475 419.946L243.621 418.979C243.074 418.33 242.402 417.833 241.622 417.493L241.023 418.868ZM242.475 419.946L241.33 420.915C241.509 421.127 241.62 421.347 241.68 421.586L243.135 421.222L244.59 420.858C244.415 420.159 244.086 419.528 243.62 418.977L242.475 419.946ZM243.135 421.222L241.68 421.586C241.761 421.911 241.811 422.321 241.811 422.828H243.311H244.811C244.811 422.132 244.743 421.471 244.59 420.858L243.135 421.222ZM243.311 422.828H241.811V430H243.311H244.811V422.828H243.311ZM243.311 430V428.5H239.329V430V431.5H243.311V430ZM239.329 430H240.829V424.302H239.329H237.829V430H239.329ZM239.329 424.302H240.829C240.829 423.683 240.782 423.093 240.648 422.581L239.197 422.96L237.745 423.339C237.788 423.501 237.829 423.806 237.829 424.302H239.329ZM239.197 422.96L240.665 422.654C240.547 422.084 240.296 421.52 239.84 421.063L238.779 422.124L237.718 423.185C237.699 423.165 237.693 423.152 237.696 423.158C237.7 423.165 237.714 423.198 237.728 423.266L239.197 422.96ZM238.779 422.124L239.84 421.063C239.511 420.735 239.116 420.479 238.659 420.327L238.185 421.75L237.711 423.173C237.709 423.172 237.706 423.171 237.704 423.17C237.701 423.169 237.7 423.168 237.699 423.168C237.698 423.167 237.704 423.171 237.718 423.185L238.779 422.124ZM238.185 421.75L238.659 420.327C238.275 420.199 237.879 420.14 237.481 420.14V421.64V423.14C237.581 423.14 237.655 423.154 237.711 423.173L238.185 421.75ZM237.481 421.64V420.14C236.483 420.14 235.514 420.457 234.8 421.257L235.919 422.256L237.038 423.255C237.057 423.233 237.129 423.14 237.481 423.14V421.64ZM235.919 422.256L234.798 421.259C234.118 422.025 233.891 423.007 233.891 423.972H235.391H236.891C236.891 423.441 237.016 423.279 237.04 423.253L235.919 422.256ZM235.391 423.972H233.891V430H235.391H236.891V423.972H235.391ZM235.391 430V428.5H231.409V430V431.5H235.391V430ZM231.409 430H232.909V418.714H231.409H229.909V430H231.409ZM250 418.714H248.5V425.072H250H251.5V418.714H250ZM250 425.072H248.5C248.5 425.988 248.722 426.953 249.429 427.683C250.145 428.422 251.106 428.662 252.024 428.662V427.162V425.662C251.593 425.662 251.543 425.553 251.584 425.596C251.616 425.63 251.5 425.549 251.5 425.072H250ZM252.024 427.162V428.662C252.943 428.662 253.904 428.422 254.62 427.683C255.327 426.953 255.548 425.988 255.548 425.072H254.048H252.548C252.548 425.549 252.432 425.63 252.465 425.596C252.506 425.553 252.455 425.662 252.024 425.662V427.162ZM254.048 425.072H255.548V418.714H254.048H252.548V425.072H254.048ZM254.048 418.714V420.214H258.03V418.714V417.214H254.048V418.714ZM258.03 418.714H256.53V425.842H258.03H259.53V418.714H258.03ZM258.03 425.842H256.53C256.53 427.004 256.167 427.656 255.61 428.076L256.512 429.274L257.415 430.472C258.882 429.367 259.53 427.731 259.53 425.842H258.03ZM256.512 429.274L255.601 428.082C254.98 428.558 253.87 428.918 252.024 428.918V430.418V431.918C254.168 431.918 256.05 431.516 257.423 430.466L256.512 429.274ZM252.024 430.418V428.918C250.181 428.918 249.058 428.559 248.417 428.076L247.514 429.274L246.612 430.472C247.995 431.515 249.878 431.918 252.024 431.918V430.418ZM247.514 429.274L248.425 428.082C247.88 427.665 247.518 427.012 247.518 425.842H246.018H244.518C244.518 427.723 245.154 429.357 246.603 430.466L247.514 429.274ZM246.018 425.842H247.518V418.714H246.018H244.518V425.842H246.018ZM246.018 418.714V420.214H250V418.714V417.214H246.018V418.714ZM339.25 542.75L340.171 543.934L351.421 535.184L350.5 534L349.579 532.816L338.329 541.566L339.25 542.75ZM350.5 534L351.421 532.816L340.171 524.066L339.25 525.25L338.329 526.434L349.579 535.184L350.5 534ZM339.25 525.25H337.75V542.75H339.25H340.75V525.25H339.25ZM325.5 542.75L326.421 543.934L337.671 535.184L336.75 534L335.829 532.816L324.579 541.566L325.5 542.75ZM336.75 534L337.671 532.816L326.421 524.066L325.5 525.25L324.579 526.434L335.829 535.184L336.75 534ZM325.5 525.25H324V542.75H325.5H327V525.25H325.5ZM114.75 542.75L115.671 541.566L104.421 532.816L103.5 534L102.579 535.184L113.829 543.934L114.75 542.75ZM103.5 534L104.421 535.184L115.671 526.434L114.75 525.25L113.829 524.066L102.579 532.816L103.5 534ZM114.75 525.25H113.25V542.75H114.75H116.25V525.25H114.75ZM128.5 542.75L129.421 541.566L118.171 532.816L117.25 534L116.329 535.184L127.579 543.934L128.5 542.75ZM117.25 534L118.171 535.184L129.421 526.434L128.5 525.25L127.579 524.066L116.329 532.816L117.25 534ZM128.5 525.25H127V542.75H128.5H130V525.25H128.5ZM236.5 631V629.5H231.5V631V632.5H236.5V631ZM231.5 631H230V651H231.5H233V631H231.5ZM231.5 651V652.5H236.5V651V649.5H231.5V651ZM236.5 651H238V631H236.5H235V651H236.5ZM246.5 631V629.5H241.5V631V632.5H246.5V631ZM241.5 631H240V651H241.5H243V631H241.5ZM241.5 651V652.5H246.5V651V649.5H241.5V651ZM246.5 651H248V631H246.5H245V651H246.5ZM206.25 629.75L205.439 631.012L222.939 642.262L223.75 641L224.561 639.738L207.061 628.488L206.25 629.75ZM223.75 641L222.939 639.738L205.439 650.988L206.25 652.25L207.061 653.512L224.561 642.262L223.75 641ZM206.25 652.25H207.75V629.75H206.25H204.75V652.25H206.25Z" fill="#D9D9D9"/>
</svg>
