<svg width="81" height="41" viewBox="0 0 81 41" fill="none" xmlns="http://www.w3.org/2000/svg">
<path d="M0 0.999999C0 0.447714 0.447715 0 1 0H71.9C72.4523 0 72.9 0.447715 72.9 1V40C72.9 40.5523 72.4523 41 71.9 41H0.999999C0.447715 41 0 40.5523 0 40V0.999999Z" fill="url(#paint0_linear_191_47)"/>
<path d="M72.9 10.84C72.9 10.2877 73.3477 9.84 73.9 9.84H80C80.5523 9.84 81 10.2877 81 10.84V30.16C81 30.7123 80.5523 31.16 80 31.16H73.9C73.3477 31.16 72.9 30.7123 72.9 30.16V10.84Z" fill="url(#paint1_linear_191_47)"/>
<defs>
<linearGradient id="paint0_linear_191_47" x1="40.5" y1="0" x2="40.5" y2="41" gradientUnits="userSpaceOnUse">
<stop offset="0.216346" stop-color="#90FE37"/>
<stop offset="0.807692" stop-color="#416B20"/>
</linearGradient>
<linearGradient id="paint1_linear_191_47" x1="76.95" y1="9.84" x2="76.95" y2="31.16" gradientUnits="userSpaceOnUse">
<stop offset="0.216346" stop-color="white"/>
<stop offset="0.807692" stop-color="#7C7C7C"/>
</linearGradient>
</defs>
</svg>
